PathFileType	4	(X/Y/Z)	/Users/itak/Documents/Research/Walk-IL/dataset/trc/00054_00006.trc
DataRate	CameraRate	NumFrames	NumMarkers	Units	OrigDataRate	OrigDataStartFrame	OrigNumFrames
100.000000	100.000000	4	53	mm	100.000000	177	472
Frame#	Time	RPSI			LPSI			L3			STRN			T10			C7			CLAV			RBAK			LBAK			LSHO			LUPA			LAEL			LAOL			LWTS			LWPS			LFRA			LHPS			LHTS			RSHO			RUPA			RAEL			RAOL			RWTS			RWPS			RFRA			RIFD			RHTS			RHPS			RBHD			LFHD			RFHD			LBHD			LHIP			RHIP			RASI			LASI			LKNE			LTHI			LANK			LTIP			LTOE			LMT1			LMT5			LHEE			RKNE			RTHI			RANK			RTIP			RTOE			RMT1			RMT5			RHEE			LIFD			
		X1	Y1	Z1	X2	Y2	Z2	X3	Y3	Z3	X4	Y4	Z4	X5	Y5	Z5	X6	Y6	Z6	X7	Y7	Z7	X8	Y8	Z8	X9	Y9	Z9	X10	Y10	Z10	X11	Y11	Z11	X12	Y12	Z12	X13	Y13	Z13	X14	Y14	Z14	X15	Y15	Z15	X16	Y16	Z16	X17	Y17	Z17	X18	Y18	Z18	X19	Y19	Z19	X20	Y20	Z20	X21	Y21	Z21	X22	Y22	Z22	X23	Y23	Z23	X24	Y24	Z24	X25	Y25	Z25	X26	Y26	Z26	X27	Y27	Z27	X28	Y28	Z28	X29	Y29	Z29	X30	Y30	Z30	X31	Y31	Z31	X32	Y32	Z32	X33	Y33	Z33	X34	Y34	Z34	X35	Y35	Z35	X36	Y36	Z36	X37	Y37	Z37	X38	Y38	Z38	X39	Y39	Z39	X40	Y40	Z40	X41	Y41	Z41	X42	Y42	Z42	X43	Y43	Z43	X44	Y44	Z44	X45	Y45	Z45	X46	Y46	Z46	X47	Y47	Z47	X48	Y48	Z48	X49	Y49	Z49	X50	Y50	Z50	X51	Y51	Z51	X52	Y52	Z52	X53	Y53	Z53	

178	1.77	586.0254516601562	1002.557495117188	-168.0490417480469	559.145751953125	989.4454345703125	-339.0868835449219	579.2202758789062	1067.224365234375	-265.6682739257812	857.2053833007812	1231.005981445312	-279.1316223144531	584.5860595703125	1197.178955078125	-281.18798828125	671.1083374023438	1456.185913085938	-288.1473693847656	839.7257080078125	1348.337768554688	-280.4369201660156	592.4722290039062	1326.490478515625	-212.7150573730469	647.8137817382812	1420.033813476562	-390.6798095703125	754.8751220703125	1412.39453125	-457.1968994140625	739.413818359375	1284.8271484375	-532.3096923828125	771.5697631835938	1068.768798828125	-546.5283813476562	699.71044921875	1053.138916015625	-471.1521606445312	884.4840698242188	855.2265014648438	-441.982666015625	837.7467041015625	827.2192993164062	-506.3417358398438	807.0913696289062	962.654296875	-538.8930053710938	881.9495849609375	753.8141479492188	-485.9125366210938	919.6074829101562	778.7426147460938	-430.3392028808594	728.8993530273438	1414.621215820312	-110.7517700195312	704.9014282226562	1351.049560546875	-48.42228698730469	626.1582641601562	1103.836791992188	-1.605279922485352	650.7225952148438	1068.254150390625	-92.28563690185547	737.83544921875	834.2615966796875	-8.483294486999512	662.625732421875	831.9181518554688	34.58693313598633	626.0516357421875	1021.935424804688	14.37578105926514	711.9607543945312	644.5877685546875	-20.97178077697754	741.689697265625	726.8792114257812	-4.88420295715332	680.93408203125	737.0537719726562	40.69073867797852	722.126708984375	1628.02783203125	-348.0266723632812	872.2601928710938	1650.516723632812	-193.4071960449219	894.836181640625	1663.429321289062	-316.88134765625	706.266357421875	1606.954711914062	-212.7822875976562	648.5112915039062	921.2952270507812	-441.9525146484375	660.6740112304688	931.81787109375	-95.39595794677734	780.32177734375	947.6262817382812	-132.9741516113281	769.390380859375	929.31103515625	-400.4087219238281	714.6885375976562	449.5686950683594	-368.3155822753906	687.5087890625	592.8033447265625	-413.2079467773438	447.4153747558594	53.9964714050293	-378.0806579589844	570.9515380859375	235.9329986572266	-385.3764343261719	648.7196655273438	36.33376693725586	-374.4446105957031	601.5167846679688	36.11859512329102	-320.4241943359375	548.1689453125	34.77370834350586	-419.2786865234375	394.7737426757812	62.21701812744141	-301.567138671875	882.5065307617188	525.5660400390625	-112.5236129760742	786.9832763671875	778.1775512695312	-88.27641296386719	949.1765747070312	38.90042495727539	-121.6396255493164	901.9279174804688	401.7402648925781	-104.1060028076172	1162.511840820312	39.36517715454102	-170.6077270507812	1100.6455078125	57.0203742980957	-202.72900390625	1075.63671875	35.44757461547852	-111.6482467651367	901.1109008789062	50.40871810913086	-175.9296417236328	918.5509643554688	679.226806640625	-392.0102844238281	
179	1.78	575.9014892578125	1002.673217773438	-170.1390533447266	549.99072265625	989.4793701171875	-341.3037719726562	569.4224853515625	1067.586669921875	-267.9421081542969	848.337158203125	1230.690307617188	-280.4295654296875	575.6277465820312	1197.517822265625	-283.5285034179688	662.817138671875	1456.334106445312	-289.85546875	831.1571044921875	1348.104125976562	-281.7013854980469	583.6181640625	1326.718505859375	-214.9598846435547	639.9197387695312	1420.331787109375	-392.5594177246094	747.1888427734375	1412.658813476562	-458.6964416503906	731.8441772460938	1285.29638671875	-534.257568359375	763.6426391601562	1069.097290039062	-548.5648193359375	691.4916381835938	1053.502807617188	-473.3671569824219	876.3231811523438	855.5083618164062	-443.8316650390625	829.6171264648438	827.529296875	-508.2379455566406	799.093017578125	962.982177734375	-540.89404296875	873.6915893554688	754.03955078125	-487.7373962402344	911.317138671875	778.9277954101562	-432.1157836914062	719.6320190429688	1414.332153320312	-112.4434661865234	695.4263305664062	1350.594970703125	-50.26262664794922	616.6397705078125	1103.121826171875	-4.440494060516357	642.2451782226562	1067.490966796875	-94.92729949951172	729.3326416015625	833.9685668945312	-9.698155403137207	653.5504760742188	831.3668823242188	32.51845169067383	616.5777587890625	1021.254821777344	11.59348773956299	704.2725219726562	644.17041015625	-22.21439933776855	733.427978515625	726.5991821289062	-5.976202487945557	672.2033081054688	736.5733642578125	38.95333480834961	714.477294921875	1628.1083984375	-349.1689758300781	864.5142822265625	1650.005981445312	-194.3883361816406	887.275390625	1662.971557617188	-317.8689575195312	698.4287109375	1606.998046875	-213.9357299804688	639.9011840820312	921.2213134765625	-443.5425109863281	650.083984375	932.0478515625	-96.92320251464844	769.9918212890625	947.8717041015625	-133.8662109375	760.0209350585938	928.7843017578125	-401.0237121582031	709.4834594726562	449.9421997070312	-368.3429260253906	681.181884765625	592.8473510742188	-413.90234375	446.7871704101562	52.33105087280273	-377.338623046875	568.47998046875	234.5879669189453	-384.736083984375	648.574951171875	36.38036346435547	-374.4923706054688	601.314697265625	35.84010314941406	-320.0895080566406	547.796630859375	34.68755340576172	-418.7981567382812	394.0972595214844	59.10977554321289	-300.7074279785156	874.6951904296875	527.1185302734375	-111.0470352172852	777.0717163085938	779.14990234375	-88.14498901367188	945.8837890625	39.37801361083984	-117.3129959106445	894.9871826171875	403.5968627929688	-102.0610961914062	1158.376708984375	42.76483917236328	-169.42138671875	1095.683837890625	60.6004753112793	-200.5165100097656	1072.636474609375	36.34140014648438	-109.5047988891602	896.6605224609375	51.39913177490234	-170.8416748046875	910.064697265625	679.421142578125	-393.8424682617188	
180	1.79	565.8579711914062	1002.792358398438	-172.2754669189453	540.9962768554688	989.5205688476562	-343.5896606445312	559.7783813476562	1067.921020507812	-270.2424926757812	839.5070190429688	1230.512329101562	-281.5628356933594	566.6858520507812	1197.881713867188	-285.8250122070312	654.4666748046875	1456.548706054688	-291.4652099609375	822.57861328125	1347.998168945312	-282.8185119628906	574.73876953125	1326.970581054688	-217.1389007568359	632.0304565429688	1420.68017578125	-394.3414001464844	739.5170288085938	1412.998046875	-460.0686645507812	724.298095703125	1285.873657226562	-536.1242065429688	755.641357421875	1069.527587890625	-550.6392211914062	683.2117309570312	1053.967163085938	-475.6452941894531	868.00244140625	855.8533935546875	-445.723388671875	821.3287353515625	827.90869140625	-510.1854248046875	790.9874877929688	963.4042358398438	-542.9472045898438	865.2576904296875	754.3184814453125	-489.5976257324219	902.8436889648438	779.1683959960938	-433.9243469238281	710.2794189453125	1414.113403320312	-114.0117492675781	685.8681030273438	1350.205810546875	-51.99201583862305	607.1885986328125	1102.430297851562	-7.128135681152344	633.88623046875	1066.763305664062	-97.40784454345703	721.02685546875	833.76513671875	-10.81633377075195	644.6852416992188	830.8568115234375	30.53005218505859	607.2152099609375	1020.593200683594	8.945514678955078	696.91650390625	643.8392333984375	-23.35050582885742	725.4475708007812	726.4191284179688	-6.954698085784912	663.7404174804688	736.1534423828125	37.3013916015625	706.8033447265625	1628.291748046875	-350.2240295410156	856.735595703125	1649.591552734375	-195.2844696044922	879.6982421875	1662.592529296875	-318.7799987792969	690.5588989257812	1607.171630859375	-215.0043792724609	631.5612182617188	921.192626953125	-445.1186828613281	639.5233764648438	932.2948608398438	-98.47003936767578	759.734375	948.2532958984375	-134.6119384765625	750.8734741210938	928.343505859375	-401.5000915527344	704.6172485351562	450.4161376953125	-368.337158203125	675.2168579101562	592.984619140625	-414.577392578125	446.2652282714844	50.917724609375	-376.6906127929688	566.212890625	233.4391632080078	-384.1393737792969	648.4387817382812	36.43446350097656	-374.5307006835938	601.1402587890625	35.56361389160156	-319.7628479003906	547.48193359375	34.64569091796875	-418.3435668945312	393.5452270507812	56.35548400878906	-299.9534912109375	867.2194213867188	528.8380737304688	-109.6022109985352	767.3285522460938	780.2332763671875	-87.87570190429688	940.7628784179688	39.81031799316406	-112.683723449707	888.040771484375	405.4962463378906	-99.99684906005859	1152.445922851562	46.28548049926758	-167.6971435546875	1088.931884765625	63.93508911132812	-197.9377136230469	1067.760131835938	37.43538665771484	-106.8871154785156	890.3861083984375	52.02912139892578	-165.5041046142578	901.3626708984375	679.6876220703125	-395.6950073242188	
181	1.8	555.9395751953125	1002.919311523438	-174.4215087890625	532.1744995117188	989.5677490234375	-345.8994750976562	550.315673828125	1068.241333007812	-272.5270385742188	830.7252197265625	1230.48681640625	-282.5362243652344	557.7789306640625	1198.277465820312	-288.0424194335938	646.0642700195312	1456.83935546875	-292.9645690917969	813.9993896484375	1348.031860351562	-283.7902526855469	565.8453979492188	1327.2587890625	-219.2267456054688	624.1375732421875	1421.085693359375	-396.0096130371094	731.84521484375	1413.414794921875	-461.311767578125	716.7542114257812	1286.55126953125	-537.8908081054688	747.5753173828125	1070.059936523438	-552.7318725585938	674.8860473632812	1054.526611328125	-477.9670715332031	859.5260620117188	856.2578125	-447.6443176269531	812.894287109375	828.3562622070312	-512.1759033203125	782.7837524414062	963.91796875	-545.0328369140625	856.6637573242188	754.6544189453125	-491.4886474609375	894.1976318359375	779.4674682617188	-435.7572937011719	700.8739013671875	1413.975952148438	-115.4457168579102	676.2596435546875	1349.8935546875	-53.59939193725586	597.829345703125	1101.777587890625	-9.648728370666504	625.6461181640625	1066.09033203125	-99.714111328125	712.9076538085938	833.6556396484375	-11.84923362731934	636.0370483398438	830.4010620117188	28.62994956970215	597.9843139648438	1019.966003417969	6.448889255523682	689.8567504882812	643.6040649414062	-24.39692306518555	717.7333984375	726.345458984375	-7.8333740234375	655.5396728515625	735.8043212890625	35.73392486572266	699.1074829101562	1628.589721679688	-351.1909484863281	848.9340209960938	1649.2978515625	-196.099609375	872.1085205078125	1662.309814453125	-319.6192321777344	682.6616821289062	1607.488403320312	-215.9874267578125	623.4888916015625	921.21337890625	-446.6531982421875	629.055908203125	932.5709838867188	-100.0072784423828	749.5977172851562	948.7806396484375	-135.2125549316406	741.9786987304688	928.0258178710938	-401.857666015625	700.1148681640625	451.0046081542969	-368.3008728027344	669.6268920898438	593.2250366210938	-415.2205810546875	445.8402709960938	49.75804901123047	-376.1315002441406	564.146728515625	232.51220703125	-383.5918579101562	648.3151245117188	36.4921989440918	-374.55859375	600.9938354492188	35.29338073730469	-319.4521789550781	547.2228393554688	34.64443588256836	-417.9185180664062	393.1092529296875	53.98191452026367	-299.2978515625	860.1162719726562	530.7195434570312	-108.2630462646484	757.82763671875	781.4320068359375	-87.51189422607422	933.430419921875	40.23203659057617	-107.924690246582	880.9967041015625	407.4099426269531	-97.98875427246094	1144.420532226562	49.74161529541016	-165.2487945556641	1080.176879882812	66.83143615722656	-194.9190979003906	1060.599365234375	38.73087692260742	-103.7311935424805	882.0262451171875	52.30677795410156	-160.1747894287109	892.4590454101562	680.0206298828125	-397.5642700195312	
